<svg xmlns="http://www.w3.org/2000/svg" viewBox="0 0 1024 1024">
  <g transform="translate(14.7,130.6) scale(0.9536)" fill="none" stroke="#FFFFFF" stroke-linecap="round" stroke-linejoin="round">
    <!-- entry curl at the top of the "C" -->
    <path stroke-width="52" d="M489.7,283.0 C499.7,255.0 531.7,243.0 555.7,259.0 C567.7,267.0 569.7,281.0 557.7,289.0"/>
    <!-- cursive "C" -->
    <path stroke-width="52" d="M489.7,283.0 A190,190 0 1,0 489.7,517.0"/>
    <!-- ligature into first "e" -->
    <path stroke-width="38" d="M489.7,517.0 C519.7,509.0 661.3,451.3 691.3,443.3"/>
    <!-- first "e" loop -->
    <path stroke-width="38" d="M691.3,443.3 A78,78 0 1,0 591.3,543.3"/>
    <!-- ligature into second "e" -->
    <path stroke-width="32" d="M591.3,543.3 C619.3,539.3 788.1,451.8 816.1,447.8"/>
    <!-- second "e" loop -->
    <path stroke-width="32" d="M816.1,447.8 A65,65 0 1,0 792.3,523.2"/>
    <!-- tail flourish -->
    <path stroke-width="24" d="M792.3,523.2 C827.3,537.2 867.3,529.2 892.3,505.2 C910.3,487.2 912.3,465.2 897.3,451.2"/>
  </g>
</svg>
